<svg xmlns="http://www.w3.org/2000/svg" version="1.1" xmlns:xlink="http://www.w3.org/1999/xlink" xmlns:svgjs="http://svgjs.dev/svgjs" width="1440" height="820" preserveAspectRatio="none" viewBox="0 0 1440 820"><g mask="url(&quot;#SvgjsMask1085&quot;)" fill="none"><rect width="1440" height="820" x="0" y="0" fill="rgba(31, 21, 96, 1)"></rect><path d="M0,630.257C113.035,602.925,169.166,477.535,272.039,423.301C389.731,361.254,567.332,403.61,640.584,292.545C712.03,184.218,639.441,38.581,608.971,-87.557C581.082,-203.011,558.029,-327.238,471.272,-408.36C387.432,-486.755,265.033,-499.602,151.351,-515.453C51.19,-529.419,-45.981,-514.163,-145.143,-494.31C-253.725,-472.572,-363.989,-457.451,-454.813,-394.098C-562.705,-318.839,-701.748,-233.182,-707.884,-101.778C-714.12,31.765,-542.656,100.917,-483.529,220.82C-427.077,335.297,-469.55,496.582,-372.142,579.064C-274.608,661.653,-124.224,660.294,0,630.257" fill="#150f42"></path><path d="M1440 1500.7060000000001C1563.059 1477.01 1637.399 1358.894 1741.2060000000001 1288.686 1841.84 1220.624 1998.998 1208.446 2040.7910000000002 1094.372 2083.0119999999997 979.129 1970.467 866.9110000000001 1939.211 748.224 1912.4479999999999 646.597 1924.482 537.181 1870.338 447.11 1810.101 346.905 1729.646 248.5 1617.981 213.851 1505.851 179.058 1386.439 221.89999999999998 1276.395 262.813 1172.376 301.486 1076.392 358.091 1003.935 442.147 931.602 526.06 879.337 627.5219999999999 867.102 737.63 855.08 845.82 907.719 944.978 936.393 1049.99 971.271 1177.723 955.054 1332.761 1053.719 1421.0639999999999 1153.708 1510.5520000000001 1308.234 1526.078 1440 1500.7060000000001" fill="#291c7e"></path></g><defs><mask id="SvgjsMask1085"><rect width="1440" height="820" fill="#ffffff"></rect></mask></defs></svg>